<svg viewBox="0 0 137.399 31.983" xmlns="http://www.w3.org/2000/svg" overflow="visible"><g><path d="M 0.492 0 L 137.399 0 L 137.399 31.983 L 0.492 31.983 Z" fill="rgb(162,30,41)"></path><path d="M 0.492 0 L 137.399 0 L 137.399 31.983 L 0.492 31.983 Z" fill="transparent" stroke-width="2.939" stroke="rgb(162,30,41)" stroke-miterlimit="10" stroke-dasharray=""></path><path d="M 0.965 31.51 C 0.432 31.51 0 31.078 0 30.546 L 0 1.457 C 0 0.924 0.432 0.492 0.965 0.492 L 74.71 0.492 C 75.242 0.492 75.674 0.924 75.674 1.457 L 75.674 30.546 C 75.674 31.078 75.242 31.51 74.71 31.51 Z" fill="rgb(162,30,41)"></path><path d="M 11.427 24.682 C 9.34 24.682 7.705 24.173 6.522 23.156 C 5.347 22.132 4.759 20.719 4.759 18.918 L 7.686 18.918 C 7.701 19.935 8.036 20.73 8.692 21.303 C 9.355 21.875 10.274 22.162 11.45 22.162 C 12.497 22.162 13.341 21.943 13.981 21.506 C 14.622 21.062 14.942 20.47 14.942 19.732 C 14.942 19.137 14.701 18.654 14.219 18.285 C 13.736 17.908 12.934 17.592 11.811 17.336 L 10.003 16.929 C 8.323 16.545 7.083 15.976 6.284 15.222 C 5.486 14.469 5.087 13.501 5.087 12.318 C 5.087 11.316 5.343 10.438 5.855 9.684 C 6.375 8.931 7.098 8.347 8.025 7.932 C 8.959 7.511 10.044 7.3 11.28 7.3 C 13.164 7.3 14.656 7.778 15.756 8.735 C 16.864 9.692 17.44 11.007 17.485 12.679 L 14.648 12.679 C 14.588 11.79 14.256 11.093 13.653 10.589 C 13.05 10.083 12.256 9.831 11.269 9.831 C 10.334 9.831 9.569 10.05 8.974 10.487 C 8.379 10.924 8.081 11.485 8.081 12.171 C 8.081 12.736 8.315 13.195 8.782 13.55 C 9.257 13.896 10.044 14.194 11.144 14.442 L 12.851 14.838 C 14.599 15.222 15.88 15.795 16.693 16.556 C 17.507 17.317 17.914 18.315 17.914 19.551 C 17.914 20.598 17.651 21.506 17.123 22.275 C 16.596 23.043 15.846 23.638 14.874 24.06 C 13.902 24.475 12.753 24.682 11.427 24.682 Z M 26.069 12.476 L 26.069 14.77 L 23.639 14.77 L 23.639 20.986 C 23.639 21.416 23.726 21.713 23.899 21.879 C 24.073 22.037 24.389 22.116 24.848 22.116 L 26.069 22.116 L 26.069 24.411 L 24.351 24.411 C 23.138 24.411 22.238 24.166 21.65 23.676 C 21.07 23.186 20.78 22.429 20.78 21.405 L 20.78 14.77 L 18.7 14.77 L 18.7 12.476 L 20.78 12.476 L 20.78 9.221 L 23.639 9.221 L 23.639 12.475 L 26.069 12.475 Z M 32.72 24.682 C 31.53 24.682 30.498 24.415 29.624 23.88 C 28.75 23.345 28.075 22.61 27.601 21.676 C 27.134 20.734 26.9 19.66 26.9 18.455 C 26.9 17.242 27.141 16.168 27.623 15.234 C 28.113 14.292 28.788 13.553 29.646 13.018 C 30.505 12.476 31.492 12.204 32.608 12.204 C 33.753 12.204 34.755 12.468 35.614 12.996 C 36.473 13.523 37.14 14.254 37.614 15.188 C 38.089 16.115 38.326 17.189 38.326 18.409 L 38.326 19.189 L 29.691 19.189 C 29.729 20.161 30.016 20.945 30.551 21.54 C 31.086 22.135 31.831 22.433 32.788 22.433 C 33.504 22.433 34.096 22.279 34.563 21.969 C 35.03 21.653 35.346 21.238 35.512 20.726 L 38.179 20.726 C 38.036 21.488 37.693 22.198 37.185 22.783 C 36.68 23.378 36.043 23.846 35.275 24.185 C 34.506 24.516 33.655 24.682 32.72 24.682 Z M 29.714 17.223 L 35.591 17.223 C 35.501 16.371 35.192 15.701 34.664 15.211 C 34.144 14.714 33.474 14.465 32.652 14.465 C 31.824 14.465 31.149 14.714 30.63 15.211 C 30.117 15.701 29.812 16.371 29.714 17.223 Z M 44.288 24.648 C 43.038 24.648 42.017 24.245 41.226 23.439 C 40.435 22.633 40.039 21.465 40.039 19.935 L 40.039 12.476 L 42.887 12.476 L 42.887 19.483 C 42.887 20.357 43.098 21.02 43.52 21.472 C 43.942 21.924 44.533 22.15 45.294 22.15 C 46.048 22.15 46.669 21.917 47.159 21.45 C 47.656 20.982 47.905 20.24 47.905 19.223 L 47.905 12.476 L 50.764 12.476 L 50.764 24.411 L 47.962 24.411 L 47.962 22.58 C 47.125 23.959 45.901 24.648 44.288 24.648 Z M 58.343 24.682 C 57.152 24.682 56.12 24.415 55.246 23.88 C 54.372 23.345 53.698 22.61 53.223 21.676 C 52.756 20.734 52.522 19.66 52.522 18.455 C 52.522 17.242 52.763 16.168 53.245 15.234 C 53.735 14.292 54.41 13.553 55.268 13.018 C 56.127 12.476 57.115 12.204 58.229 12.204 C 59.375 12.204 60.377 12.468 61.236 12.996 C 62.095 13.523 62.762 14.254 63.237 15.188 C 63.711 16.115 63.948 17.189 63.948 18.409 L 63.948 19.189 L 55.314 19.189 C 55.351 20.161 55.638 20.945 56.173 21.54 C 56.708 22.135 57.454 22.433 58.41 22.433 C 59.126 22.433 59.718 22.279 60.185 21.969 C 60.652 21.653 60.968 21.238 61.134 20.726 L 63.801 20.726 C 63.658 21.488 63.315 22.198 62.807 22.783 C 62.302 23.378 61.665 23.846 60.897 24.185 C 60.128 24.516 59.277 24.682 58.343 24.682 Z M 55.336 17.223 L 61.214 17.223 C 61.123 16.371 60.814 15.701 60.287 15.211 C 59.767 14.714 59.096 14.465 58.275 14.465 C 57.446 14.465 56.772 14.714 56.252 15.211 C 55.739 15.701 55.434 16.371 55.336 17.223 Z M 65.661 24.411 L 65.661 12.476 L 68.407 12.476 L 68.407 14.453 L 68.441 14.453 C 68.66 13.775 69.003 13.259 69.47 12.905 C 69.944 12.544 70.566 12.363 71.335 12.363 C 71.53 12.363 71.704 12.37 71.855 12.385 C 72.013 12.393 72.148 12.401 72.261 12.408 L 72.261 14.94 C 72.081 14.917 71.9 14.898 71.719 14.883 C 71.452 14.86 71.184 14.849 70.916 14.849 C 70.238 14.849 69.665 15.083 69.198 15.55 C 68.739 16.017 68.509 16.718 68.509 17.652 L 68.509 24.411 Z M 75.645 16.042 C 75.645 8.542 81.725 2.462 89.225 2.462 L 134.949 2.462 L 134.949 29.622 L 89.225 29.622 C 81.725 29.622 75.645 23.542 75.645 16.042 Z" fill="rgb(255,255,255)"></path><path d="M 87.36 24.603 C 85.808 24.603 84.436 24.245 83.246 23.529 C 82.055 22.814 81.121 21.804 80.443 20.5 C 79.765 19.197 79.426 17.671 79.426 15.923 C 79.426 14.16 79.765 12.626 80.443 11.323 C 81.121 10.019 82.055 9.01 83.246 8.294 C 84.436 7.579 85.808 7.221 87.36 7.221 C 88.626 7.221 89.771 7.469 90.796 7.966 C 91.82 8.464 92.664 9.164 93.327 10.068 C 93.998 10.973 94.427 12.039 94.616 13.267 L 91.575 13.267 C 91.349 12.197 90.863 11.368 90.118 10.781 C 89.372 10.193 88.46 9.899 87.382 9.899 C 86.358 9.899 85.472 10.147 84.726 10.645 C 83.988 11.142 83.419 11.843 83.02 12.747 C 82.628 13.651 82.432 14.71 82.432 15.923 C 82.432 17.128 82.628 18.183 83.02 19.087 C 83.419 19.984 83.988 20.681 84.726 21.178 C 85.465 21.676 86.35 21.924 87.382 21.924 C 88.452 21.924 89.36 21.634 90.106 21.054 C 90.852 20.474 91.346 19.649 91.587 18.579 L 94.616 18.579 C 94.427 19.807 93.998 20.873 93.327 21.777 C 92.664 22.674 91.82 23.371 90.796 23.868 C 89.771 24.358 88.626 24.603 87.36 24.603 Z M 99.267 7.492 L 99.267 24.332 L 96.418 24.332 L 96.418 7.492 Z M 105.206 24.524 C 104.016 24.524 103.029 24.226 102.245 23.631 C 101.469 23.028 101.081 22.132 101.081 20.941 C 101.081 20.037 101.299 19.34 101.736 18.85 C 102.181 18.353 102.757 17.991 103.466 17.765 C 104.181 17.539 104.95 17.384 105.771 17.302 C 106.879 17.174 107.651 17.061 108.088 16.963 C 108.525 16.865 108.744 16.612 108.744 16.205 L 108.744 16.115 C 108.744 15.603 108.548 15.184 108.156 14.86 C 107.772 14.537 107.24 14.375 106.562 14.375 C 105.869 14.375 105.304 14.537 104.867 14.86 C 104.437 15.184 104.204 15.599 104.166 16.104 L 101.42 16.104 C 101.488 14.921 101.981 13.968 102.901 13.244 C 103.82 12.521 105.059 12.159 106.619 12.159 C 108.171 12.159 109.384 12.521 110.258 13.244 C 111.132 13.968 111.569 14.951 111.569 16.194 L 111.569 24.331 L 108.766 24.331 L 108.766 22.648 L 108.721 22.648 C 108.435 23.175 108.02 23.62 107.478 23.981 C 106.935 24.343 106.178 24.524 105.206 24.524 Z M 105.907 22.41 C 106.841 22.41 107.549 22.169 108.032 21.687 C 108.514 21.197 108.755 20.606 108.755 19.913 L 108.755 18.624 C 108.582 18.737 108.246 18.843 107.749 18.941 C 107.208 19.038 106.665 19.129 106.122 19.212 C 105.511 19.302 104.98 19.476 104.528 19.732 C 104.083 19.98 103.861 20.376 103.861 20.918 C 103.861 21.386 104.046 21.751 104.415 22.015 C 104.784 22.279 105.281 22.41 105.907 22.41 Z M 113.858 24.332 L 113.858 12.396 L 116.604 12.396 L 116.604 14.374 L 116.638 14.374 C 116.857 13.696 117.2 13.18 117.667 12.826 C 118.141 12.464 118.763 12.283 119.532 12.283 C 119.728 12.283 119.901 12.291 120.052 12.306 C 120.21 12.314 120.345 12.321 120.459 12.329 L 120.459 14.86 C 120.278 14.837 120.097 14.818 119.916 14.804 C 119.649 14.781 119.381 14.769 119.114 14.77 C 118.435 14.77 117.863 15.004 117.396 15.471 C 116.936 15.938 116.706 16.638 116.706 17.573 L 116.706 24.331 L 113.858 24.331 Z M 125.29 24.524 C 124.1 24.524 123.113 24.226 122.329 23.631 C 121.553 23.028 121.165 22.132 121.165 20.941 C 121.165 20.037 121.383 19.34 121.821 18.85 C 122.265 18.353 122.842 17.991 123.55 17.765 C 124.265 17.539 125.034 17.384 125.855 17.302 C 126.963 17.174 127.735 17.061 128.172 16.963 C 128.609 16.865 128.828 16.612 128.828 16.205 L 128.828 16.115 C 128.828 15.603 128.632 15.184 128.24 14.86 C 127.856 14.537 127.325 14.375 126.646 14.375 C 125.953 14.375 125.388 14.537 124.951 14.86 C 124.522 15.184 124.288 15.599 124.251 16.104 L 121.504 16.104 C 121.572 14.921 122.065 13.968 122.985 13.244 C 123.904 12.521 125.143 12.159 126.703 12.159 C 128.255 12.159 129.468 12.521 130.342 13.244 C 131.216 13.968 131.653 14.951 131.653 16.194 L 131.653 24.331 L 128.85 24.331 L 128.85 22.648 L 128.805 22.648 C 128.519 23.175 128.104 23.62 127.562 23.981 C 127.019 24.343 126.262 24.524 125.29 24.524 Z M 125.991 22.41 C 126.925 22.41 127.633 22.169 128.116 21.687 C 128.598 21.197 128.839 20.606 128.839 19.913 L 128.839 18.624 C 128.666 18.737 128.33 18.843 127.833 18.941 C 127.292 19.038 126.749 19.129 126.206 19.212 C 125.595 19.302 125.064 19.476 124.612 19.732 C 124.168 19.98 123.945 20.376 123.945 20.918 C 123.945 21.386 124.13 21.751 124.499 22.015 C 124.868 22.279 125.365 22.41 125.991 22.41 Z" fill="rgb(162,30,41)"></path></g></svg>