<svg xmlns="http://www.w3.org/2000/svg" width="233" height="72" fill="none"><path fill="#BF9549" d="M3.453 48V19.324h12.413c2.567 0 4.779.423 6.636 1.27 1.857.819 3.291 2.007 4.302 3.564 1.01 1.556 1.515 3.414 1.515 5.571 0 2.13-.505 3.974-1.515 5.53-1.01 1.557-2.445 2.759-4.302 3.606-1.857.819-4.07 1.229-6.636 1.229H7.14l2.95-2.99V48H3.452Zm6.636-10.16-2.95-3.154h8.358c2.048 0 3.578-.437 4.588-1.31 1.01-.875 1.516-2.09 1.516-3.647 0-1.584-.505-2.813-1.516-3.687-1.01-.874-2.54-1.31-4.588-1.31H7.14l2.95-3.155V37.84ZM34.286 48V19.324H46.7c2.567 0 4.78.423 6.637 1.27 1.857.819 3.29 2.007 4.301 3.564 1.01 1.556 1.516 3.414 1.516 5.571 0 2.13-.505 3.974-1.516 5.53-1.01 1.53-2.444 2.704-4.301 3.524-1.858.819-4.07 1.229-6.637 1.229h-8.726l2.95-2.909V48h-6.637Zm18.23 0-7.169-10.405h7.087L59.685 48h-7.169ZM40.923 37.84l-2.95-3.113h8.357c2.049 0 3.578-.437 4.589-1.31 1.01-.902 1.515-2.131 1.515-3.688 0-1.584-.505-2.813-1.515-3.687-1.01-.874-2.54-1.31-4.589-1.31h-8.357l2.95-3.155V37.84Zm38.645 10.652c-2.266 0-4.37-.369-6.308-1.106-1.912-.738-3.578-1.776-4.998-3.114a14.617 14.617 0 0 1-3.278-4.71c-.764-1.803-1.147-3.77-1.147-5.9 0-2.13.383-4.097 1.147-5.9a14.32 14.32 0 0 1 3.319-4.71c1.42-1.339 3.086-2.376 4.998-3.114 1.911-.737 3.987-1.106 6.227-1.106 2.266 0 4.342.369 6.226 1.106 1.912.738 3.564 1.775 4.957 3.114a14.32 14.32 0 0 1 3.319 4.71c.792 1.776 1.188 3.742 1.188 5.9 0 2.13-.396 4.11-1.188 5.94a14.32 14.32 0 0 1-3.319 4.711c-1.392 1.311-3.045 2.335-4.957 3.073-1.884.737-3.946 1.106-6.186 1.106Zm-.04-5.654c1.283 0 2.457-.218 3.523-.655a8.448 8.448 0 0 0 2.867-1.885 8.359 8.359 0 0 0 1.885-2.908c.464-1.12.696-2.362.696-3.728s-.232-2.608-.696-3.728a8.357 8.357 0 0 0-1.885-2.909 8.027 8.027 0 0 0-2.826-1.884c-1.093-.437-2.28-.655-3.564-.655-1.284 0-2.472.218-3.565.655a8.55 8.55 0 0 0-2.826 1.884 8.865 8.865 0 0 0-1.926 2.909c-.437 1.12-.655 2.362-.655 3.728 0 1.338.218 2.58.655 3.728a9.214 9.214 0 0 0 1.885 2.908 8.448 8.448 0 0 0 2.867 1.885c1.093.437 2.28.655 3.565.655ZM101.434 48V19.324h5.49l12.208 20.237h-2.909l12.003-20.237h5.449L133.757 48h-6.227l-.041-19.131h1.147l-9.586 16.1h-2.991l-9.791-16.1h1.393V48h-6.227Zm46.459-17.124h13.806v5.162h-13.806v-5.162Zm.492 11.799h15.608V48h-22.204V19.324h21.671v5.325h-15.075v18.026ZM170.502 48V19.324h13.028c3.113 0 5.858.6 8.234 1.802 2.376 1.175 4.233 2.827 5.571 4.957 1.339 2.13 2.008 4.657 2.008 7.579 0 2.895-.669 5.421-2.008 7.579-1.338 2.13-3.195 3.796-5.571 4.998-2.376 1.174-5.121 1.761-8.234 1.761h-13.028Zm6.637-5.448h6.063c1.912 0 3.564-.355 4.957-1.066 1.42-.737 2.513-1.775 3.277-3.113.792-1.338 1.188-2.909 1.188-4.711 0-1.83-.396-3.4-1.188-4.711-.764-1.338-1.857-2.363-3.277-3.073-1.393-.737-3.045-1.106-4.957-1.106h-6.063v17.78Z"/><path fill="#1D1D1B" d="M3.528 67v-8.742H6.8c.74 0 1.377.121 1.91.362.533.234.941.575 1.224 1.025.292.44.437.978.437 1.61 0 .617-.146 1.15-.437 1.599-.283.441-.69.783-1.224 1.024-.533.242-1.17.362-1.91.362H4.04l.412-.437V67h-.924Zm.924-3.122-.412-.45h2.735c.874 0 1.536-.187 1.985-.561.458-.383.687-.92.687-1.611 0-.7-.229-1.241-.687-1.624-.45-.383-1.111-.574-1.985-.574H4.04l.412-.438v5.258Zm18.233-1.71h4.62v.786h-4.62v-.787Zm.1 4.033h5.257v.8H21.86v-8.743h5.995v.8h-5.07V66.2Zm16.92.8v-8.743h3.272c.741 0 1.378.121 1.911.362.533.234.94.575 1.224 1.025.291.44.437.978.437 1.61 0 .617-.146 1.15-.437 1.599-.283.441-.691.783-1.224 1.024-.533.233-1.17.35-1.91.35h-2.76l.412-.425V67h-.925Zm5.97 0-2.248-3.173h.999L46.686 67h-1.011Zm-5.045-3.123-.413-.437h2.735c.875 0 1.537-.192 1.986-.575.458-.383.687-.92.687-1.61 0-.7-.23-1.241-.687-1.624-.45-.383-1.111-.574-1.986-.574h-2.734l.412-.438v5.258Zm18.415-1.386h4.621v.8h-4.62v-.8Zm.1 4.508h-.924v-8.742h5.995v.8h-5.07V67Zm20.182.075a5.1 5.1 0 0 1-1.836-.325 4.532 4.532 0 0 1-1.461-.936 4.566 4.566 0 0 1-.962-1.411 4.578 4.578 0 0 1-.337-1.774c0-.64.112-1.228.337-1.76a4.379 4.379 0 0 1 .962-1.412c.416-.408.903-.72 1.46-.936a4.867 4.867 0 0 1 1.837-.338c.657 0 1.265.113 1.823.338.558.216 1.04.524 1.448.924.417.4.737.87.962 1.41.233.542.35 1.133.35 1.774s-.117 1.232-.35 1.774a4.13 4.13 0 0 1-.962 1.41c-.407.4-.89.713-1.448.937a4.999 4.999 0 0 1-1.823.325Zm0-.824c.524 0 1.007-.088 1.448-.262a3.502 3.502 0 0 0 1.936-1.912c.183-.44.275-.923.275-1.448 0-.524-.092-1.003-.275-1.436a3.41 3.41 0 0 0-.774-1.149 3.24 3.24 0 0 0-1.162-.762 3.74 3.74 0 0 0-1.448-.274c-.525 0-1.012.091-1.462.274-.45.175-.84.43-1.173.762a3.676 3.676 0 0 0-.775 1.15 3.65 3.65 0 0 0-.274 1.435c0 .516.091.995.274 1.436.192.442.45.829.775 1.162.333.325.724.578 1.174.762.45.174.936.262 1.46.262Zm16.145.75v-8.743h3.272c.741 0 1.378.121 1.911.362.533.234.941.575 1.224 1.025.291.44.437.978.437 1.61 0 .617-.146 1.15-.437 1.599-.283.441-.691.783-1.224 1.024-.533.233-1.17.35-1.91.35h-2.76l.411-.425V67h-.924Zm5.97 0-2.248-3.173h.999l2.26 3.172h-1.011Zm-5.046-3.123-.412-.437h2.735c.874 0 1.536-.192 1.986-.575.458-.383.687-.92.687-1.61 0-.7-.229-1.241-.687-1.624-.45-.383-1.112-.574-1.986-.574h-2.735l.412-.438v5.258ZM113.988 67v-8.742h.762l3.996 6.819h-.4l3.959-6.819h.762V67h-.887v-7.355h.213l-3.647 6.244h-.437l-3.672-6.244h.238V67h-.887Zm20.02 0 3.996-8.742h.911L142.912 67h-.974l-3.672-8.205h.375L134.969 67h-.961Zm1.573-2.335.275-.75h5.083l.274.75h-5.632ZM153.849 67v-8.742h.762l6.031 7.593h-.399v-7.593h.911V67h-.761l-6.02-7.593h.4V67h-.924Zm23.446.075a4.997 4.997 0 0 1-1.823-.325 4.388 4.388 0 0 1-1.449-.936c-.408-.4-.728-.87-.961-1.411a4.574 4.574 0 0 1-.338-1.774c0-.64.113-1.232.338-1.773a4.375 4.375 0 0 1 .961-1.411c.417-.4.904-.708 1.461-.924a4.836 4.836 0 0 1 1.824-.338 4.89 4.89 0 0 1 1.785.325 3.532 3.532 0 0 1 1.412.95l-.587.586a3.184 3.184 0 0 0-1.187-.787 3.862 3.862 0 0 0-1.398-.25 3.84 3.84 0 0 0-1.462.275c-.449.175-.84.43-1.173.762a3.566 3.566 0 0 0-.787 1.15 3.652 3.652 0 0 0-.275 1.435c0 .525.092 1.008.275 1.449.191.433.454.816.787 1.149a3.62 3.62 0 0 0 1.173.762c.45.174.937.262 1.462.262.499 0 .965-.083 1.398-.25a3.325 3.325 0 0 0 1.187-.8l.587.588a3.646 3.646 0 0 1-1.412.961 4.924 4.924 0 0 1-1.798.325Zm15.495-4.908h4.621v.787h-4.621v-.787Zm.1 4.034h5.257v.8h-6.181v-8.743h5.994v.8h-5.07V66.2Z"/><path fill="#BF9549" d="M216.479 0a.718.718 0 0 0-.719.718V9.41l-7.544-4.318a.72.72 0 0 0-.98.267l-2.141 3.74a.717.717 0 0 0 .267.98l7.488 4.285-7.487 4.286a.718.718 0 0 0-.266.979l2.14 3.741a.714.714 0 0 0 .979.267l7.544-4.318v8.691c0 .397.321.719.719.719h4.309a.718.718 0 0 0 .718-.719v-8.69l7.544 4.318c.166.093.36.12.546.07a.727.727 0 0 0 .435-.337l2.14-3.741a.716.716 0 0 0-.266-.98l-7.488-4.285 7.486-4.285a.717.717 0 0 0 .267-.98l-2.141-3.74a.712.712 0 0 0-.979-.267l-7.544 4.318V.718a.717.717 0 0 0-.718-.718h-4.309Z"/></svg>